<svg width="41" height="40" viewBox="0 0 41 40" fill="none" xmlns="http://www.w3.org/2000/svg">
<g id="instagram-2016-5 1" clip-path="url(#clip0_24_34)">
<path id="Vector" d="M13.9354 20C13.9354 16.3182 16.9193 13.3328 20.601 13.3328C24.2828 13.3328 27.2682 16.3182 27.2682 20C27.2682 23.6818 24.2828 26.6672 20.601 26.6672C16.9193 26.6672 13.9354 23.6818 13.9354 20ZM10.3313 20C10.3313 25.672 14.929 30.2698 20.601 30.2698C26.273 30.2698 30.8708 25.672 30.8708 20C30.8708 14.328 26.273 9.73024 20.601 9.73024C14.929 9.73024 10.3313 14.328 10.3313 20ZM28.8773 9.32304C28.8771 9.79772 29.0177 10.2618 29.2813 10.6566C29.5448 11.0514 29.9195 11.3591 30.358 11.5409C30.7965 11.7228 31.279 11.7705 31.7446 11.6781C32.2102 11.5857 32.6379 11.3572 32.9737 11.0217C33.3095 10.6862 33.5382 10.2587 33.631 9.79316C33.7238 9.32764 33.6765 8.84506 33.495 8.40645C33.3135 7.96783 33.0061 7.59288 32.6115 7.32901C32.2169 7.06513 31.753 6.92419 31.2783 6.924H31.2773C30.6411 6.9243 30.0309 7.17712 29.5809 7.62693C29.1309 8.07675 28.8779 8.68678 28.8773 9.32304ZM12.521 36.2795C10.5711 36.1907 9.51125 35.8659 8.80693 35.5915C7.87317 35.228 7.20693 34.795 6.50645 34.0955C5.80597 33.396 5.37237 32.7304 5.01045 31.7966C4.73589 31.0926 4.41109 30.0325 4.32245 28.0826C4.22549 25.9744 4.20613 25.3411 4.20613 20.0002C4.20613 14.6592 4.22709 14.0277 4.32245 11.9178C4.41125 9.96784 4.73845 8.90976 5.01045 8.20368C5.37397 7.26992 5.80693 6.60368 6.50645 5.9032C7.20597 5.20272 7.87157 4.76912 8.80693 4.4072C9.51093 4.13264 10.5711 3.80784 12.521 3.7192C14.6292 3.62224 15.2625 3.60288 20.601 3.60288C25.9396 3.60288 26.5735 3.62384 28.6834 3.7192C30.6333 3.808 31.6914 4.1352 32.3975 4.4072C33.3313 4.76912 33.9975 5.20368 34.698 5.9032C35.3985 6.60272 35.8305 7.26992 36.194 8.20368C36.4685 8.90768 36.7933 9.96784 36.882 11.9178C36.9789 14.0277 36.9983 14.6592 36.9983 20.0002C36.9983 25.3411 36.9789 25.9726 36.882 28.0826C36.7932 30.0325 36.4668 31.0923 36.194 31.7966C35.8305 32.7304 35.3975 33.3966 34.698 34.0955C33.9985 34.7944 33.3313 35.228 32.3975 35.5915C31.6935 35.8661 30.6333 36.1909 28.6834 36.2795C26.5753 36.3765 25.942 36.3958 20.601 36.3958C15.2601 36.3958 14.6285 36.3765 12.521 36.2795ZM12.3554 0.12112C10.2263 0.21808 8.77141 0.55568 7.50085 1.05008C6.18501 1.56064 5.07109 2.2456 3.95797 3.35696C2.84485 4.46832 2.16165 5.584 1.65109 6.89984C1.15669 8.1712 0.819093 9.62528 0.722133 11.7544C0.623573 13.8869 0.601013 14.5686 0.601013 20C0.601013 25.4314 0.623573 26.1131 0.722133 28.2456C0.819093 30.3749 1.15669 31.8288 1.65109 33.1002C2.16165 34.4152 2.84501 35.5322 3.95797 36.643C5.07093 37.7539 6.18501 38.4379 7.50085 38.9499C8.77381 39.4443 10.2263 39.7819 12.3554 39.8789C14.489 39.9758 15.1697 40 20.601 40C26.0324 40 26.7141 39.9774 28.8466 39.8789C30.9759 39.7819 32.4298 39.4443 33.7012 38.9499C35.0162 38.4379 36.1309 37.7544 37.244 36.643C38.3572 35.5317 39.0389 34.4152 39.5509 33.1002C40.0453 31.8288 40.3845 30.3747 40.4799 28.2456C40.5769 26.1115 40.5994 25.4314 40.5994 20C40.5994 14.5686 40.5769 13.8869 40.4799 11.7544C40.3829 9.62512 40.0453 8.1704 39.5509 6.89984C39.0389 5.5848 38.3554 4.47008 37.244 3.35696C36.1327 2.24384 35.0162 1.56064 33.7028 1.05008C32.4298 0.55568 30.9757 0.21648 28.8482 0.12112C26.7157 0.02416 26.034 0 20.6026 0C15.1713 0 14.489 0.02256 12.3554 0.12112Z" fill="#FA8F21"/>
<path id="Vector_2" d="M13.9354 20C13.9354 16.3182 16.9193 13.3328 20.601 13.3328C24.2828 13.3328 27.2682 16.3182 27.2682 20C27.2682 23.6818 24.2828 26.6672 20.601 26.6672C16.9193 26.6672 13.9354 23.6818 13.9354 20ZM10.3313 20C10.3313 25.672 14.929 30.2698 20.601 30.2698C26.273 30.2698 30.8708 25.672 30.8708 20C30.8708 14.328 26.273 9.73024 20.601 9.73024C14.929 9.73024 10.3313 14.328 10.3313 20ZM28.8773 9.32304C28.8771 9.79772 29.0177 10.2618 29.2813 10.6566C29.5448 11.0514 29.9195 11.3591 30.358 11.5409C30.7965 11.7228 31.279 11.7705 31.7446 11.6781C32.2102 11.5857 32.6379 11.3572 32.9737 11.0217C33.3095 10.6862 33.5382 10.2587 33.631 9.79316C33.7238 9.32764 33.6765 8.84506 33.495 8.40645C33.3135 7.96783 33.0061 7.59288 32.6115 7.32901C32.2169 7.06513 31.753 6.92419 31.2783 6.924H31.2773C30.6411 6.9243 30.0309 7.17712 29.5809 7.62693C29.1309 8.07675 28.8779 8.68678 28.8773 9.32304ZM12.521 36.2795C10.5711 36.1907 9.51125 35.8659 8.80693 35.5915C7.87317 35.228 7.20693 34.795 6.50645 34.0955C5.80597 33.396 5.37237 32.7304 5.01045 31.7966C4.73589 31.0926 4.41109 30.0325 4.32245 28.0826C4.22549 25.9744 4.20613 25.3411 4.20613 20.0002C4.20613 14.6592 4.22709 14.0277 4.32245 11.9178C4.41125 9.96784 4.73845 8.90976 5.01045 8.20368C5.37397 7.26992 5.80693 6.60368 6.50645 5.9032C7.20597 5.20272 7.87157 4.76912 8.80693 4.4072C9.51093 4.13264 10.5711 3.80784 12.521 3.7192C14.6292 3.62224 15.2625 3.60288 20.601 3.60288C25.9396 3.60288 26.5735 3.62384 28.6834 3.7192C30.6333 3.808 31.6914 4.1352 32.3975 4.4072C33.3313 4.76912 33.9975 5.20368 34.698 5.9032C35.3985 6.60272 35.8305 7.26992 36.194 8.20368C36.4685 8.90768 36.7933 9.96784 36.882 11.9178C36.9789 14.0277 36.9983 14.6592 36.9983 20.0002C36.9983 25.3411 36.9789 25.9726 36.882 28.0826C36.7932 30.0325 36.4668 31.0923 36.194 31.7966C35.8305 32.7304 35.3975 33.3966 34.698 34.0955C33.9985 34.7944 33.3313 35.228 32.3975 35.5915C31.6935 35.8661 30.6333 36.1909 28.6834 36.2795C26.5753 36.3765 25.942 36.3958 20.601 36.3958C15.2601 36.3958 14.6285 36.3765 12.521 36.2795ZM12.3554 0.12112C10.2263 0.21808 8.77141 0.55568 7.50085 1.05008C6.18501 1.56064 5.07109 2.2456 3.95797 3.35696C2.84485 4.46832 2.16165 5.584 1.65109 6.89984C1.15669 8.1712 0.819093 9.62528 0.722133 11.7544C0.623573 13.8869 0.601013 14.5686 0.601013 20C0.601013 25.4314 0.623573 26.1131 0.722133 28.2456C0.819093 30.3749 1.15669 31.8288 1.65109 33.1002C2.16165 34.4152 2.84501 35.5322 3.95797 36.643C5.07093 37.7539 6.18501 38.4379 7.50085 38.9499C8.77381 39.4443 10.2263 39.7819 12.3554 39.8789C14.489 39.9758 15.1697 40 20.601 40C26.0324 40 26.7141 39.9774 28.8466 39.8789C30.9759 39.7819 32.4298 39.4443 33.7012 38.9499C35.0162 38.4379 36.1309 37.7544 37.244 36.643C38.3572 35.5317 39.0389 34.4152 39.5509 33.1002C40.0453 31.8288 40.3845 30.3747 40.4799 28.2456C40.5769 26.1115 40.5994 25.4314 40.5994 20C40.5994 14.5686 40.5769 13.8869 40.4799 11.7544C40.3829 9.62512 40.0453 8.1704 39.5509 6.89984C39.0389 5.5848 38.3554 4.47008 37.244 3.35696C36.1327 2.24384 35.0162 1.56064 33.7028 1.05008C32.4298 0.55568 30.9757 0.21648 28.8482 0.12112C26.7157 0.02416 26.034 0 20.6026 0C15.1713 0 14.489 0.02256 12.3554 0.12112Z" fill="#331A15"/>
</g>
<defs>
<clipPath id="clip0_24_34">
<rect width="40" height="40" fill="white" transform="translate(0.600006)"/>
</clipPath>
</defs>
</svg>
