<svg width="41" height="40" viewBox="0 0 41 40" fill="none" xmlns="http://www.w3.org/2000/svg">
<g id="linkedin-icon-2 1" clip-path="url(#clip0_24_43)">
<g id="Group">
<path id="Vector" d="M0.799988 2.93393C0.799988 1.35869 2.11875 0.0800781 3.74441 0.0800781H37.6956C39.3218 0.0800781 40.64 1.35869 40.64 2.93393V37.0667C40.64 38.6424 39.3218 39.9201 37.6956 39.9201H3.74441C2.11891 39.9201 0.799988 38.6426 0.799988 37.0672V2.93346V2.93393Z" fill="#331A15"/>
<path id="Vector_2" d="M12.907 33.4209V15.4848H6.9453V33.4209H12.9076H12.907ZM9.92739 13.0364C12.0059 13.0364 13.2999 11.6591 13.2999 9.93789C13.261 8.17746 12.0059 6.83862 9.96692 6.83862C7.92652 6.83862 6.5939 8.17746 6.5939 9.93774C6.5939 11.659 7.88746 13.0362 9.88833 13.0362H9.92692L9.92739 13.0364ZM16.2069 33.4209H22.1681V23.4057C22.1681 22.8703 22.207 22.3336 22.3645 21.9512C22.7952 20.8797 23.7761 19.7706 25.4234 19.7706C27.5801 19.7706 28.4433 21.4152 28.4433 23.8266V33.4209H34.4044V23.1369C34.4044 17.6279 31.4637 15.0643 27.5415 15.0643C24.3258 15.0643 22.9135 16.8617 22.1289 18.0858H22.1685V15.4855H16.2072C16.285 17.1681 16.2067 33.4216 16.2067 33.4216L16.2069 33.4209Z" fill="white"/>
</g>
</g>
<defs>
<clipPath id="clip0_24_43">
<rect width="39.84" height="40" fill="white" transform="translate(0.799988)"/>
</clipPath>
</defs>
</svg>
