<svg width="50" height="40" viewBox="0 0 50 40" fill="none" xmlns="http://www.w3.org/2000/svg">
<g id="Group 24">
<path id="Vector" d="M15.6729 40C34.2398 40 44.3934 24.6124 44.3934 11.2688C44.3934 10.8318 44.3845 10.3968 44.3648 9.9636C46.3405 8.53352 48.0455 6.76285 49.4 4.7346C47.5913 5.539 45.645 6.0804 43.6032 6.3245C45.6873 5.0744 47.2872 3.0967 48.0421 0.7393C46.0606 1.91519 43.8928 2.74414 41.6323 3.1904C39.7903 1.2276 37.1679 0 34.2641 0C28.6897 0 24.1693 4.5222 24.1693 10.0965C24.1693 10.889 24.258 11.6596 24.4312 12.399C16.0417 11.9767 8.60251 7.9585 3.62381 1.8486C2.7271 3.38964 2.25545 5.14106 2.25701 6.924C2.25701 10.4274 4.03901 13.5201 6.74901 15.3295C5.14601 15.2805 3.57821 14.8474 2.17741 14.0665C2.17591 14.1089 2.17591 14.1502 2.17591 14.1955C2.17591 19.0858 5.65531 23.1689 10.2741 24.0941C9.40664 24.3304 8.5115 24.4499 7.61241 24.4494C6.96311 24.4494 6.33031 24.3855 5.71531 24.2674C7.00041 28.2796 10.7268 31.1993 15.1449 31.2809C11.69 33.9898 7.33791 35.6033 2.60781 35.6033C1.80316 35.604 0.999169 35.5573 0.200012 35.4634C4.66741 38.3279 9.97201 39.9993 15.6734 39.9993" fill="#331A15"/>
</g>
</svg>
